<svg xmlns="http://www.w3.org/2000/svg" xml:space="preserve" fill-rule="evenodd" stroke-linejoin="round" stroke-miterlimit="2" clip-rule="evenodd" viewBox="0 0 155 155">
  <path d="M150.001 17.448 68.883-.002 0 24.208l8.92 92.6 79.68 37.627 56.046-48.93L150 17.447ZM85.307 136.47 54.74 121.9s-.895-17.417-1.415-27.428a4.383 4.383 0 0 1 1.837-3.79 4.39 4.39 0 0 1 4.183-.482c9.023 3.687 24.44 9.978 24.44 9.978l20.621-12.822a2.292 2.292 0 0 1 2.347-.047 2.288 2.288 0 0 1 1.167 2.038l-.469 28.056-22.144 19.066ZM38.41 85.67a10.255 10.255 0 0 1 6.746 9.295c.295 8.713.758 22.547.758 22.547s-11.955-5.94-18.808-9.35a9.24 9.24 0 0 1-5.102-7.547l-1.71-21.521s10.817 3.93 18.116 6.577Zm94.024-15.416s-9.66 6.338-15.173 9.95a8.443 8.443 0 0 0-3.809 6.919c-.131 8.507-.412 26.196-.412 26.196l13.824-11.533a12.6 12.6 0 0 0 4.511-9.079l1.059-22.453Zm-72.855 10.48a9.228 9.228 0 0 1-6.094-8.545c-.085-6.442-.22-16.303-.31-22.618a9.508 9.508 0 0 1 5.355-8.685c3.973-1.93 9.252-4.497 12.751-6.193a10.855 10.855 0 0 1 7.697-.68c8.643 2.446 28.37 8.035 28.37 8.035s-.262 18.036-.393 27.377a9.891 9.891 0 0 1-4.755 8.305c-6.891 4.184-18.968 11.52-18.968 11.52l-23.653-8.517Zm-40.034-11.45-4.268-36.221 27.69-8.962s12.518 3.055 19.84 4.844c.754.183 1.312.83 1.382 1.607.07.778-.36 1.513-1.068 1.832-3.603 1.611-8.568 3.841-12.64 5.668a11.857 11.857 0 0 0-6.998 11.2c.187 5.838.445 13.755.637 19.714a5.935 5.935 0 0 1-7.781 5.832c-7.261-2.38-16.794-5.514-16.794-5.514Zm98.4.553a2.697 2.697 0 0 1-2.764.07 2.692 2.692 0 0 1-1.378-2.398l.534-29.387s-14.526-3.954-23.549-6.404a2.723 2.723 0 0 1-1.99-2.375 2.716 2.716 0 0 1 1.522-2.693l11.716-5.669 32.426 7.008-1.424 32.287-15.093 9.56Zm-50.13-53.92c2.127-.66 4.38-.815 6.577-.459 6.554 1.068 20.472 3.331 20.472 3.331s-8.494 3.56-14.555 6.095a18.94 18.94 0 0 1-12.222.833c-6.938-1.845-17.174-4.572-17.174-4.572s11.21-3.471 16.902-5.228Z"/>
</svg>
